<svg width="141" height="50" viewBox="0 0 141 50" fill="none" xmlns="http://www.w3.org/2000/svg">
<path d="M97.3847 22.7219L92.7146 31.1306L90.5757 34.9816L87.8967 39.8031L91.2241 47.3817H97.3519L98.6585 44.815L100.177 41.8347L104.565 33.2215H128.907L134.17 22.7235H97.3831L97.3847 22.7219ZM127.047 29.7669H102.375L97.4783 39.3475L95.886 42.4651L94.7813 44.6246H93.2826L91.4884 39.7391L92.3305 38.16L94.1837 34.6883L98.7176 26.1952C98.7176 26.1952 129.056 26.2421 129.105 26.1952L127.047 29.7653V29.7669Z" fill="#7AC3BC"/>
<path d="M134.936 20.2784H98.524L103.363 10.9787H140.258L134.936 20.2784Z" fill="#7AC3BC"/>
<path d="M133.3 7.32119C128.332 2.59956 121.729 4.76837e-06 114.703 4.76837e-06C107.677 4.76837e-06 101.073 2.59956 96.1061 7.32119C91.1389 12.0428 88.4025 18.3201 88.4025 24.9985C88.4025 27.378 88.7505 29.706 89.4218 31.9327L91.9301 27.4186C91.8365 26.6243 91.7889 25.8161 91.7889 24.9985C91.7889 12.9884 102.068 3.21902 114.703 3.21902C120.458 3.21902 125.722 5.24592 129.751 8.5882H134.544C134.147 8.15442 133.731 7.73157 133.3 7.32119Z" fill="#7AC3BC"/>
<path d="M139.649 17.0469L137.769 20.3299L137.266 21.2083C137.307 21.4315 137.344 21.6546 137.379 21.8793C137.533 22.8982 137.614 23.9405 137.614 24.9984C137.614 37.0085 127.334 46.7794 114.7 46.7794C110.108 46.7794 105.827 45.489 102.239 43.2686L100.745 46.2005C104.888 48.6753 109.686 50 114.7 50C121.725 50 128.329 47.4004 133.296 42.6772C138.264 37.9556 141 31.6783 141 25C141 22.2538 140.537 19.5778 139.647 17.0469H139.649Z" fill="#7AC3BC"/>
<path d="M32.9798 35.0955C32.4873 35.3764 31.9013 35.0783 31.6846 34.5899C31.5976 34.3918 31.4532 34.217 31.2628 34.0813C30.9016 34.5135 30.772 35.2469 29.9693 35.2078C29.5178 35.186 29.2224 34.8583 29.0664 34.4682C28.8497 33.9252 28.8941 33.4915 29.3028 33.053C29.5983 32.7347 30.0218 32.446 30.4781 32.7674C30.7621 32.9672 30.9345 33.3417 31.1314 33.713C31.6042 33.7879 31.6633 32.6489 32.5875 32.6395C33.208 32.6333 33.5724 33.1794 33.5921 33.7224C33.6118 34.2654 33.4821 34.8084 32.9782 35.0955H32.9798Z" fill="#7AC3BC"/>
<path d="M34.5245 42.6663L34.0681 42.0609L33.4739 42.6305L32.3084 42.6039C32.0326 42.5977 31.8242 42.2466 31.6469 42.0063C31.5615 41.8908 31.2201 42.0157 31.1544 42.153C31.0444 42.387 30.8392 42.5446 30.5733 42.5446L25.9968 42.5509C25.8507 42.5509 25.5815 42.6039 25.4551 42.5946C24.8822 42.5556 24.3733 42.5587 23.8382 42.5665L21.7977 42.5961C21.3792 42.6024 20.7931 42.5852 20.4025 42.6445C20.2613 42.6258 19.9839 42.5446 19.8181 42.5462L16.4776 42.5743C16.018 42.5774 15.5961 42.6024 15.1397 42.5789C14.1942 42.529 13.2815 42.5634 12.3426 42.5899L10.7831 42.6351C10.6223 42.4073 10.509 42.1483 10.3186 41.7301C10.0395 41.9236 10.0067 42.5977 9.60454 42.5914L7.8596 42.5634L2.2062 42.5883C1.55944 42.5914 0.825684 42.0625 0.53021 41.5678C0.344719 41.2589 0.114905 40.7783 0.0984897 40.485L0 38.7093L0.116547 37.3986L2.17501 37.4298L2.26366 38.5517L2.30962 40.4147C2.31947 40.8111 2.6133 41.1138 3.03353 41.1153L8.57202 41.1263C8.76736 41.1263 9.10551 40.8969 9.10716 40.6753L9.12193 33.3058L11.1262 33.2792C11.164 33.4088 11.2296 33.66 11.2313 33.8191L11.2625 40.4163C11.2641 40.8158 11.5547 41.1231 12.0061 41.1231H29.8002C30.0923 41.1231 30.4715 40.9577 30.4715 40.6925L30.4929 36.1238L32.4627 36.155C32.507 36.3781 32.5924 36.7354 32.594 36.9866L32.6104 40.2415C32.6121 40.5786 32.7959 40.8657 33.1571 40.9905C33.8859 41.2417 34.7772 41.145 35.383 40.6207C35.6079 40.4257 35.6949 39.9903 35.6965 39.6985L35.726 36.1534L37.7468 36.1441L37.8206 40.5053C37.8305 41.1169 39.0862 41.2511 39.7839 40.8782L39.9283 36.1441L41.9113 36.1503L41.9523 40.2197C41.954 40.3835 42.1345 40.6769 42.2051 40.8002C42.3315 41.0217 42.8962 41.184 43.1457 41.1216C44.4376 40.7939 43.9763 39.9591 44.019 38.7795L44.1142 36.1238L46.0282 36.1565L46.0184 40.8438C46.0184 41.0982 45.7311 41.5944 45.5637 41.7941C44.6756 42.8442 43.1802 43.1703 41.8998 42.7007C41.4041 42.5197 41.2202 42.1608 41.0035 41.6864C40.8903 41.6818 40.7425 41.883 40.6391 42.0328C40.017 42.9347 38.7547 43.1407 37.7254 42.6585C37.32 42.4697 37.1295 42.0765 36.7766 41.6817L36.0232 42.412C35.6538 42.7693 35.0563 42.8286 34.5294 42.6617L34.5245 42.6663Z" fill="#7AC3BC"/>
<path d="M52.9915 42.5618L51.2532 42.5493H49.2554C48.5676 42.5493 48.1999 41.9891 47.7124 41.5132L47.7387 33.2777L49.7298 33.273L49.7331 40.3336C49.7331 40.5006 49.8382 40.8017 49.9317 40.9047C50.0384 41.0233 50.347 41.12 50.6031 41.12L72.5847 41.1278C73.2807 41.1278 72.4435 40.616 72.5043 38.973C72.5699 37.1801 73.8947 35.6432 75.7446 35.3342C75.8481 35.3171 75.9515 35.0846 75.8415 35.0643C75.0568 34.9223 74.6908 34.1702 74.8237 33.5445C74.9387 33.0062 75.3162 32.4725 75.9318 32.4413C76.4505 32.4148 76.7197 32.8798 76.8379 33.2917C77.0595 34.061 76.7427 34.7304 75.9531 35.1532C76.636 35.3452 77.2434 35.4076 77.7867 35.6947C80.0897 36.9133 80.5247 40.3024 78.5828 42.0172C77.5536 42.9254 76.3733 42.5618 74.9748 42.5633L64.126 42.568H62.6913L56.1252 42.5649L55.4259 42.5977L54.7463 42.5852L52.9932 42.5633L52.9915 42.5618ZM77.5946 39.6392C77.6833 38.8341 77.57 38.0212 76.9233 37.475C76.306 36.9554 75.285 37.2113 74.8828 37.8885C74.4807 38.5657 74.3953 39.4458 74.7548 40.1542C75.0798 40.7924 75.7364 41.1356 76.439 40.9843C77.071 40.847 77.5175 40.343 77.5946 39.6392Z" fill="#7AC3BC"/>
<path d="M7.63962 38.6999L6.51026 38.6235C4.94097 38.5158 5.16913 38.9589 4.0332 39.1946C4.10707 38.6328 4.18258 38.2256 4.3139 37.7013C4.30077 37.0616 4.06768 36.2361 4.40583 35.6401C4.9147 34.7413 6.19345 34.487 7.12583 34.824C7.69379 35.03 7.73647 35.9334 7.55426 36.2471C7.02405 36.0785 5.96692 35.7743 5.75844 36.3173C5.49744 36.9976 7.11105 37.4673 7.68723 37.3892C7.72498 37.8558 7.73319 38.2646 7.63962 38.6999Z" fill="#7AC3BC"/>
<path d="M73.0985 23.6441C72.9474 23.6441 72.7045 23.7159 72.6454 23.8001C72.5748 23.9015 72.5453 24.1731 72.5633 24.3197C72.6011 24.6178 72.5502 24.8565 72.5486 25.1374L72.5239 30.5752C71.6966 30.5877 70.9333 30.5908 70.1372 30.5752L68.5531 30.5409L68.5761 19.4077L70.1864 19.4467L71.0301 19.4421H74.7613C74.9107 19.4421 75.0667 19.4218 75.1586 19.3828C75.2686 19.336 75.3539 19.0332 75.3588 18.9147L75.3933 18.1766C75.5197 15.4226 75.3047 12.7029 75.4344 9.93013C76.173 10.0752 76.8428 9.96289 77.5618 9.94729L79.5398 9.90674L79.4938 29.1896L79.4446 30.5565L78.8897 30.544C78.2791 30.5299 77.6865 30.558 77.066 30.5705L75.4967 30.6033C75.3474 29.6983 75.3441 28.8604 75.3506 27.9616L75.3621 26.601L75.372 24.4024C75.372 24.2557 75.4245 23.9702 75.3654 23.861C75.2965 23.7346 74.9862 23.6441 74.8106 23.6441L73.0985 23.6472V23.6441Z" fill="#7AC3BC"/>
<path d="M68.5614 18.6385L68.5368 16.4914L68.5236 15.641L68.5762 14.7344L68.5811 9.98941L69.9517 9.98162C70.4836 9.9785 71.0138 9.99097 71.5506 9.95821L72.5273 9.90047L72.5536 17.6164L72.5585 18.6541L68.563 18.6353L68.5614 18.6385Z" fill="#7AC3BC"/>
<path d="M66.3256 22.7016L66.3207 24.4898C66.3157 26.4184 66.2993 27.1642 64.8679 28.7714C63.8896 29.8699 62.4927 30.6079 60.838 30.622C58.2296 30.6438 55.59 28.6825 55.3405 26.0283C55.0122 22.5394 55.3898 18.8117 55.2174 15.3274C55.2109 15.1839 55.3159 14.9092 55.4062 14.9108L55.8248 14.917L59.1686 14.903C59.3393 14.7813 59.4493 14.3709 59.3655 14.2071C59.029 14.1088 58.6777 14.1166 58.356 14.1166H56.5684C56.1859 14.1166 55.792 14.14 55.508 14.1618C55.4669 13.1429 55.8675 12.4283 56.4814 11.7448C57.0625 11.0988 57.6748 10.6042 58.512 10.2516C60.0747 9.59466 61.8311 9.54628 63.3495 10.3374C64.625 11.0021 65.7149 12.0257 66.063 13.4004C66.3125 14.3896 66.2435 15.4101 66.1976 16.4134L64.7776 16.4056L64.0242 16.4524C63.4316 16.4883 62.8571 16.2823 62.1857 16.5304C61.8278 15.5303 62.4122 14.3522 61.0448 13.8841C60.5967 13.7312 59.5494 13.9621 59.5051 14.5753C59.4082 15.9406 59.4378 17.2607 59.4427 18.6322L59.4608 24.8378C59.4624 25.426 59.7497 26.111 60.4046 26.2171C60.8478 26.2889 61.3058 26.2093 61.5914 25.9628C61.9066 25.6928 62.0642 25.3184 62.0675 24.8471L62.0987 19.414L63.2625 19.3859L64.121 19.4249L66.3453 19.4046L66.3289 22.7032L66.3256 22.7016Z" fill="#7AC3BC"/>
<path d="M52.4958 30.4971C50.9741 30.6454 50.0828 30.4176 48.4248 30.6157C48.3936 30.3427 48.2919 29.9089 48.2919 29.5453V20.8385L48.328 20.3049C48.781 20.3423 49.3277 20.2831 49.7742 20.2955C50.5424 20.3174 51.2581 20.3486 52.0181 20.2472L52.5204 20.2909L52.5418 26.7679L52.5631 27.481L52.545 28.4734L52.4958 30.4971Z" fill="#7AC3BC"/>
<path d="M48.3707 19.5778C48.3214 19.3001 48.2706 19.002 48.2722 18.7274L48.2804 16.1793C48.2804 15.8891 48.3264 15.5848 48.3855 15.3368L50.9676 15.3212L51.6422 15.2977C51.9722 15.2868 52.3021 15.2587 52.5254 15.2384L52.5221 19.5653L48.369 19.5762L48.3707 19.5778Z" fill="#7AC3BC"/>
<path d="M44.1979 30.416C44.1979 30.725 43.6841 30.533 43.5167 30.533H40.7212C40.6572 30.5315 40.4766 30.6126 40.4339 30.6298C40.1861 30.7328 40.1861 28.7901 40.1861 28.5701L40.1664 14.3771C40.1368 14.1992 39.7084 14.0416 39.5377 14.0432L37.3282 14.0635C37.1296 14.065 36.8997 14.1321 36.6617 14.1883L36.5977 12.2082L36.578 11.1285L36.5961 9.88799C37.0146 9.96757 37.4464 10.0191 37.9241 10.0191L50.8642 10.0144C51.2237 10.0144 51.4748 9.85367 51.8491 10.005C52.0181 10.0737 52.3185 9.96757 52.5254 9.8443C52.5122 10.6089 52.5139 11.4031 52.5615 12.2004C52.6386 13.4924 52.504 12.965 52.5401 14.1556C51.6586 14.0713 50.6393 14.0635 49.6379 14.0635H45.7246C45.214 14.0635 44.7347 14.0885 44.2029 14.1696L44.1979 30.4191V30.416Z" fill="#7AC3BC"/>
<path d="M29.3782 30.6298C26.9997 30.4784 25.0528 28.9087 24.3453 26.8678C23.9481 25.7209 24.0712 24.0482 24.1746 22.7593C25.542 22.6096 25.7045 22.7843 27.2311 22.7032C27.1458 22.7078 28.3211 22.7063 28.326 22.711C28.3917 22.7578 28.4163 22.9591 28.4147 23.0511L28.3835 24.5912C28.372 25.1779 28.482 25.8161 29.0532 26.1484C29.5079 26.4121 30.0939 26.3279 30.4895 26.0423C30.9081 25.7396 31.0378 25.3121 31.0526 24.7738C31.0871 23.5145 30.1366 23.0589 28.9301 22.5269C27.5726 21.9292 24.9511 20.7917 24.4241 19.4389C24.1188 18.6541 23.9858 17.7615 24.0023 16.9345C24.017 16.1934 24.1237 15.5037 23.9727 14.8359C24.2748 14.6018 24.173 14.2585 24.2518 13.9199C24.3962 13.2989 24.5702 12.5499 24.9461 12.0537C26.632 9.82243 29.7197 9.13746 32.2181 10.3733C33.4098 10.9631 34.3028 11.7136 34.7362 12.9494C34.8215 13.1913 35.1383 13.6219 35.1449 13.8762L35.2106 16.4571L35.204 17.8146C33.9121 17.7428 32.3888 17.7896 31.0772 17.8707L31.0198 15.6332C31.0099 15.2478 30.8096 14.7875 30.6225 14.4458C30.4206 14.076 29.9823 13.9137 29.5818 13.9184C29.2141 13.9231 28.7627 14.1899 28.5591 14.5768C28.1701 15.318 28.4147 17.1889 28.4606 17.256C28.6888 17.5946 29.0549 18.0237 29.4193 18.1969L32.4692 19.6511C33.3688 20.0802 34.1715 20.6513 34.7559 21.4284C35.1695 21.9776 35.2434 22.6642 35.2894 23.3335C35.3501 24.237 35.4404 25.1248 35.25 26.0501C34.7657 28.3985 32.1787 30.8076 29.3799 30.6298H29.3782Z" fill="#7AC3BC"/>
<path d="M15.2579 27.0534C15.1036 27.0534 14.7064 27.1611 14.7031 27.2906L14.6571 29.7216C14.6522 29.9822 14.5816 30.2755 14.5504 30.5861L13.3882 30.5705L10.5665 30.6079L10.5008 26.3247V25.7817L10.509 24.0684L10.4893 22.0072C10.4795 20.9368 10.4942 20.113 10.77 19.0628C10.834 18.8225 10.9752 18.6275 11.0934 18.4059C11.3807 17.8692 11.5908 17.323 12.0882 16.9002C13.5114 15.6862 15.3958 15.1276 17.3164 15.2181L19.1615 15.3055C19.5522 15.3242 19.933 15.318 20.3187 15.2977L21.5762 15.2306L21.6205 18.1859L21.6254 28.9883C21.6254 29.5328 21.6024 29.9541 21.5647 30.5299C21.1067 30.5798 20.739 30.5658 20.2826 30.558L19.5193 30.5455L18.4753 30.5486L17.561 30.5627C17.5216 30.4878 17.4198 30.1913 17.4182 30.0524L17.4018 27.3827C17.4018 27.211 17.0242 27.0612 16.8732 27.0612L15.2579 27.0534ZM17.0094 22.6501C17.1309 22.6517 17.4067 22.4488 17.405 22.3318L17.3722 20.425C17.3689 20.1988 16.9914 19.7759 16.7714 19.6839C16.059 19.3811 15.1135 19.7416 14.8492 20.4578C14.5866 21.1709 14.6801 21.8559 14.8574 22.6173L17.0094 22.6501Z" fill="#7AC3BC"/>
<path d="M21.6648 9.94726H1.5578V14.1977H21.6648V9.94726Z" fill="#7AC3BC"/>
<path d="M5.77651 24.2276L5.76338 27.3156C5.75845 28.5904 5.71413 28.8135 5.81262 30.1819C5.8274 30.3864 5.77815 30.5814 5.59266 30.5705C4.81458 30.5221 4.1235 30.5268 3.38153 30.5486L1.72688 30.597L1.68584 29.4533L1.66779 14.8874C2.62972 14.9591 3.5424 14.9732 4.47642 14.9357L5.82575 14.8796L5.8077 19.002C5.8077 19.1986 6.05721 19.4405 6.2624 19.4405H8.68856L8.66066 23.6909C7.92362 23.7408 5.77815 23.3148 5.77323 24.2292L5.77651 24.2276Z" fill="#7AC3BC"/>
</svg>
