<svg width="12" height="11" viewBox="0 0 12 11" fill="none" xmlns="http://www.w3.org/2000/svg">
<path d="M11.3579 4.83533V9.45191C11.3579 9.81924 11.2285 10.1323 10.9698 10.3909C10.7111 10.6496 10.3981 10.779 10.0308 10.779H1.91991C1.55258 10.779 1.23956 10.6496 0.980866 10.3909C0.72217 10.1323 0.592822 9.81924 0.592822 9.45191V4.85277C0.366886 4.63 0.197222 4.35239 0.0838318 4.01993C-0.0295587 3.68747 -0.0279206 3.32933 0.088746 2.94552L0.701246 0.962185C0.785999 0.686158 0.93849 0.456787 1.15872 0.274072C1.37895 0.0913574 1.6331 0 1.92118 0H10.0295C10.3176 0 10.5699 0.0883456 10.7864 0.265037C11.0029 0.441728 11.1573 0.674111 11.2494 0.962185L11.8619 2.94552C11.9786 3.32468 11.9797 3.67506 11.8651 3.99663C11.7506 4.3182 11.5815 4.59777 11.3579 4.83533ZM7.25868 4.16006C7.50723 4.16006 7.69607 4.07536 7.82521 3.90596C7.95434 3.73656 8.00433 3.54587 7.97516 3.33388L7.65781 1.32709H6.60052V3.44357C6.60052 3.63844 6.66451 3.80657 6.79249 3.94796C6.92046 4.08936 7.07586 4.16006 7.25868 4.16006ZM4.63368 4.16006C4.84334 4.16006 5.01517 4.08936 5.14916 3.94796C5.28316 3.80657 5.35016 3.63844 5.35016 3.44357V1.32709H4.29287L3.97552 3.33388C3.93896 3.55094 3.98593 3.7429 4.11644 3.90976C4.24695 4.07662 4.41936 4.16006 4.63368 4.16006ZM2.03784 4.16006C2.20354 4.16006 2.34795 4.09919 2.47106 3.97745C2.59417 3.85571 2.66915 3.70459 2.69599 3.5241L3.00985 1.32709H1.95256L1.37969 3.24987C1.32368 3.43734 1.35179 3.6359 1.46402 3.84556C1.57625 4.05523 1.76752 4.16006 2.03784 4.16006ZM9.91284 4.16006C10.1832 4.16006 10.3763 4.05523 10.4922 3.84556C10.6081 3.6359 10.6344 3.43734 10.571 3.24987L9.96896 1.32709H8.94083L9.25469 3.5241C9.28153 3.70459 9.35651 3.85571 9.47962 3.97745C9.60274 4.09919 9.74714 4.16006 9.91284 4.16006ZM1.91991 9.45191H10.0308V5.46146C9.99147 5.47626 9.96568 5.48424 9.95342 5.4854C9.94116 5.48656 9.92764 5.48714 9.91284 5.48714C9.66662 5.48714 9.44153 5.4463 9.23757 5.36461C9.03362 5.28292 8.83093 5.14951 8.62951 4.96436C8.44986 5.13006 8.24823 5.25862 8.02462 5.35003C7.80101 5.44144 7.56514 5.48714 7.31701 5.48714C7.05916 5.48714 6.816 5.44144 6.58753 5.35003C6.35905 5.25862 6.15499 5.13006 5.97534 4.96436C5.80542 5.13006 5.61108 5.25862 5.39233 5.35003C5.17358 5.44144 4.94014 5.48714 4.69201 5.48714C4.41704 5.48714 4.16474 5.44144 3.9351 5.35003C3.70547 5.25862 3.50083 5.13006 3.32118 4.96436C3.10771 5.15923 2.89842 5.29508 2.6933 5.3719C2.48818 5.44873 2.2697 5.48714 2.03784 5.48714C2.02305 5.48714 2.00582 5.48656 1.98617 5.4854C1.96651 5.48424 1.94443 5.47626 1.91991 5.46146V9.45191ZM10.0308 9.45191H1.91991C1.94443 9.45191 1.96651 9.45191 1.98617 9.45191C2.00582 9.45191 2.02305 9.45191 2.03784 9.45191C2.2697 9.45191 2.48818 9.45191 2.6933 9.45191C2.89842 9.45191 3.10771 9.45191 3.32118 9.45191C3.411 9.45191 3.50754 9.45191 3.61078 9.45191C3.71403 9.45191 3.82398 9.45191 3.94065 9.45191C4.05732 9.45191 4.17826 9.45191 4.30349 9.45191C4.42872 9.45191 4.55822 9.45191 4.69201 9.45191C4.81607 9.45191 4.93586 9.45191 5.05136 9.45191C5.16687 9.45191 5.28052 9.45191 5.39233 9.45191C5.50413 9.45191 5.60923 9.45191 5.70761 9.45191C5.806 9.45191 5.89524 9.45191 5.97534 9.45191C6.15499 9.45191 6.35905 9.45191 6.58753 9.45191C6.816 9.45191 7.05916 9.45191 7.31701 9.45191C7.44107 9.45191 7.56144 9.45191 7.67811 9.45191C7.79477 9.45191 7.90901 9.45191 8.02081 9.45191C8.13262 9.45191 8.23956 9.45191 8.34165 9.45191C8.44373 9.45191 8.53968 9.45191 8.62951 9.45191C8.83093 9.45191 9.03362 9.45191 9.23757 9.45191C9.44153 9.45191 9.66662 9.45191 9.91284 9.45191C9.92764 9.45191 9.94116 9.45191 9.95342 9.45191C9.96568 9.45191 9.99147 9.45191 10.0308 9.45191Z" fill="#9CA3AF"/>
</svg>
